Coordinates
version=1
nRows=7
nColumns=33
inDegrees=yes

Units are S.I. units (second, meters, Newtons, ...)
Angles are in degrees.

endheader
time	ground_thorax_rot_x	ground_thorax_rot_y	ground_thorax_rot_z	ground_thorax_tx	ground_thorax_ty	ground_thorax_tz	clav_prot_r	clav_elev_r	scapula_abduction_r	scapula_elevation_r	scapula_upward_rot_r	scapula_winging_r	shoulder_elv_r	plane_of_elev_r	axial_rot_r	elbow_flexion_r	pro_sup_r	wrist_flex_r	wrist_dev_r	clav_prot_l	clav_elev_l	scapula_abduction_l	scapula_elevation_l	scapula_upward_rot_l	scapula_winging_l	shoulder_elv_l	plane_of_elev_l	axial_rot_l	elbow_flexion_l	pro_sup_l	wrist_flex_l	wrist_dev_l
      4.18000000	    -39.53968878	    -12.98794491	      9.07276934	   -113.46676938	    801.87504518	      3.19997907	      8.60693725	    -45.00000000	     35.74368912	    -45.00000000	    -37.23548311	  -5492.94746285	   -113.95533216	    150.85066729	    -96.65666806	   1809.59757541	   -340.16899608	     17.20919156	      9.91156570	     18.32918956	     39.92233836	    -41.08666939	    -45.00000000	    -45.00000000	   3678.77690678	  -3698.93871265	    135.76580711	   -179.99999979	    366.07205997	     19.89826971	     11.05833071	    -19.48268793
      4.19000000	    -39.73122125	    -13.26545787	      9.32955511	   -119.05409513	    803.34912510	      2.74738314	      8.41697644	    -45.00000000	     34.65814717	    -45.00000000	    -39.63547232	  -5492.44691768	   -113.19168688	    150.76367564	    -96.95948495	   1809.65381135	   -339.35381187	     17.19829419	      9.56675845	     17.63670849	     39.89763283	    -40.48116199	    -45.00000000	    -45.00000000	   3679.08772770	  -3698.61476505	    135.88918576	   -179.99999979	    366.23131969	     20.89452827	     11.67016061	    -19.87367170
      4.20000000	    -39.79671477	    -13.18547359	      9.20980302	   -124.65083625	    804.97661537	      2.28394649	      8.53037634	    -45.00000000	     34.49441416	    -45.00000000	    -40.27059641	  -5492.81906863	   -112.94274961	    150.71199639	    -96.58656140	   1809.85872051	   -338.33477818	     17.25739249	      9.41896124	     17.55807127	     39.81241760	    -40.18733410	    -45.00000000	    -45.00000000	   3679.28132753	  -3698.52285545	    136.04312224	   -179.99999979	    366.39546004	     22.01902046	     11.68824985	    -20.09202600
      4.21000000	    -39.83470818	    -13.06700775	      8.99672324	   -130.22997295	    806.76192075	      1.81203825	      8.59208215	    -45.00000000	     34.35121503	    -45.00000000	    -40.85661334	  -5493.17629558	   -112.71020186	    150.61646184	    -96.29416525	   1809.97307327	   -337.22107629	     17.29612760	      9.28866182	     17.40399455	     39.72881231	    -39.88908867	    -45.00000000	    -45.00000000	   3679.46273415	  -3698.47287284	    136.14687443	   -179.99999979	    366.47776721	     23.24134911	     11.69314022	    -20.31475657
      4.22000000	    -39.90270616	    -12.92514516	      8.83613414	   -135.76163258	    808.70313846	      1.33518867	      8.69760647	    -45.00000000	     34.23438048	    -45.00000000	    -41.27610243	  -5493.61243124	   -112.52888818	    150.60542593	    -95.82265927	   1810.21092624	   -336.03832074	     17.37079214	      9.11177070	     17.34910107	     39.60508364	    -39.67047801	    -45.00000000	    -45.00000000	   3679.64665673	  -3698.40457480	    136.34488687	   -179.99999979	    366.63294010	     24.50831109	     11.65831475	    -20.55694407
      4.23000000	    -39.95305290	    -12.76918478	      8.59264570	   -141.22303634	    810.79800908	      0.85775482	      8.81630345	    -45.00000000	     34.20975912	    -45.00000000	    -41.52230810	  -5494.06235525	   -112.35851490	    150.56562890	    -95.28025033	   1810.45208710	   -334.82367743	     17.45651706	      8.97172100	     17.30911813	     39.48104309	    -39.39497715	    -45.00000000	    -45.00000000	   3679.85937627	  -3698.36401142	    136.46913686	   -179.99999979	    366.79725104	     25.76924001	     11.54212204	    -20.76810085
      4.24000000	    -40.12328307	    -12.47837542	      8.21128203	   -146.58816479	    813.04135035	      0.38513307	      8.81248335	    -45.00000000	     33.92022923	    -45.00000000	    -42.95582268	  -5494.00501650	   -111.97555777	    150.29716049	    -96.88490688	   1810.50993455	   -333.51290403	     17.55069714	      8.99496760	     16.74033686	     39.60074201	    -39.12264755	    -45.00000000	    -45.00000000	   3680.30648223	  -3698.14441143	    136.22695395	   -179.99999979	    366.91106776	     27.17095010	     11.60530411	    -21.06298407
